<?xml version="1.0" encoding="UTF-8"?>
<svg version="1.1" xmlns="http://www.w3.org/2000/svg" width="512" height="512">
<path d="M0 0 C3.37954287 2.03689503 6.30173471 4.36480883 9.203125 7.02734375 C18.77436588 15.48412508 30.43704764 18.53343747 42.90625 18.359375 C46.89170076 18.00681589 50.46960612 16.92575856 54.28515625 15.76953125 C59.81020974 14.36197736 64.87263675 14.38326283 70.265625 16.21484375 C76.75435222 20.74186274 78.79408782 25.90358655 81.65234375 33.0625 C86.30950194 43.90123152 94.39540793 52.00499672 105.0703125 57.0078125 C109.75249959 58.76521877 114.56852817 59.89480451 119.4375 61 C124.70869409 62.63407017 128.44772755 64.73356602 131.328125 69.51171875 C134.3151076 76.18305798 133.11558122 83.71300864 132.796875 90.828125 C132.42684076 104.50397361 136.54916433 115.00705513 145.78515625 125.08984375 C147.47420074 126.79728742 149.19313681 128.45586903 150.953125 130.08984375 C155.54489829 134.37549882 157.6164284 137.11569044 158.328125 143.40234375 C157.65878908 149.98414693 154.60936328 154.38804337 150.453125 159.40234375 C143.78696212 167.67067453 141.00443218 178.55436034 141.953125 189.08984375 C143.47206457 198.29757792 143.47206457 198.29757792 146.640625 207.02734375 C148.75107255 211.95172138 148.40270341 215.58243379 146.890625 220.65234375 C142.66595345 228.14772876 136.30367417 231.01717444 128.75 234.671875 C119.45989122 239.38180445 113.4634018 248.37137648 109.84375 257.97265625 C108.39892426 263.02954635 107.45154714 268.21192375 106.6105957 273.40209961 C105.63609683 278.76923011 104.40052894 281.58759407 99.953125 285.08984375 C98.8703125 285.97349609 98.8703125 285.97349609 97.765625 286.875 C93.549598 288.69608944 89.49737099 288.48946496 84.953125 288.52734375 C70.65095926 288.95750255 59.16993152 291.91713458 48.76953125 302.26171875 C44.97124089 306.4261959 41.56524629 310.81631422 38.375 315.4609375 C35.93515937 318.25602965 33.30445689 319.00028856 29.765625 319.90234375 C21.06957421 320.33001838 13.68021384 315.55944387 6.1875 311.61328125 C-2.32361449 307.60442298 -10.5715612 308.33619824 -19.296875 311.33984375 C-24.04401253 313.07974484 -27.88130615 315.24219499 -32.046875 318.08984375 C-37.67525937 319.96597187 -43.76841819 320.07270747 -49.234375 317.71484375 C-54.1113846 313.16296812 -58.00406175 307.83564941 -61.9765625 302.49609375 C-68.55933022 294.84517881 -79.53793935 289.72001583 -89.53125 288.88134766 C-93.24212041 288.68188837 -96.94528615 288.53552405 -100.66162109 288.50439453 C-107.54386752 288.3905644 -111.647941 287.36593049 -116.79296875 282.484375 C-119.75667503 278.64446311 -120.34592388 274.47007861 -121.109375 269.77734375 C-122.86539976 260.36379673 -125.31935288 252.90010118 -131.046875 245.08984375 C-131.7275 244.12046875 -132.408125 243.15109375 -133.109375 242.15234375 C-138.00616454 236.39673266 -145.39789472 232.93771517 -151.984375 229.46484375 C-156.64309511 226.93130008 -159.3452372 224.19475716 -161.046875 219.08984375 C-161.82110965 212.28673275 -160.61110953 206.92133758 -158.01953125 200.6328125 C-154.21664197 190.69031883 -154.99370273 178.76203358 -158.703125 168.9453125 C-161.44245872 163.12422834 -165.09046306 157.92482958 -168.734375 152.64453125 C-170.28782445 149.62085285 -170.48001683 147.53864031 -170.484375 144.15234375 C-170.50371094 143.15332031 -170.52304688 142.15429688 -170.54296875 141.125 C-169.52161137 134.87622295 -165.43503555 131.33441156 -160.734375 127.46484375 C-152.45008629 120.09857368 -147.1782055 110.99071121 -145.046875 100.08984375 C-144.78070533 95.49564435 -144.89581122 90.93721823 -145.046875 86.33984375 C-145.52186852 71.69421017 -145.52186852 71.69421017 -142.046875 67.08984375 C-137.52921804 62.43184538 -133.52520458 61.0578142 -127.296875 59.65234375 C-120.0545539 57.82585392 -114.09879873 55.60550992 -108.046875 51.08984375 C-107.4178125 50.6515625 -106.78875 50.21328125 -106.140625 49.76171875 C-98.87446658 44.21649259 -94.71182474 36.06309123 -91.421875 27.71484375 C-89.1540189 21.99332443 -87.18595795 18.92097547 -81.796875 15.77734375 C-75.41433108 14.18170777 -69.82039479 15.04071261 -63.484375 16.58984375 C-50.60597786 19.7127807 -38.07462751 17.59713131 -26.58203125 10.84375 C-23.13541654 8.45926617 -20.10608424 5.75629235 -17.1171875 2.82421875 C-12.2781513 -1.22961535 -5.8630832 -2.60705799 0 0 Z " fill="#666" transform="translate(262.046875,7.91015625)"/>
<path d="M0 0 C8.69094612 22.75384049 17.34266501 45.52216899 25.9375 68.3125 C26.56344055 69.97212769 26.56344055 69.97212769 27.20202637 71.6652832 C30.55035927 80.54358051 33.89738091 89.42237206 37.2444458 98.30114746 C39.62594357 104.61818814 42.00837893 110.93487373 44.39212036 117.25106812 C45.12091895 119.18274675 45.84934336 121.11456661 46.57736206 123.04653931 C47.58191771 125.71235906 48.58755539 128.37776723 49.59375 131.04296875 C49.89918228 131.85310928 50.20461456 132.66324982 50.51930237 133.49794006 C52.38932163 138.44100323 54.32183826 143.35121642 56.38867188 148.21606445 C57 150 57 150 57 153 C40.20589336 153.90147292 22.84058349 151.31502999 6.56958008 147.27050781 C2.96268315 146.37716412 -0.27821708 145.79083003 -4 146 C-4.38285156 147.06154297 -4.38285156 147.06154297 -4.7734375 148.14453125 C-11.31568537 163.37505097 -24.94380684 177.82596731 -37 189 C-37.66 189 -38.32 189 -39 189 C-46.35140739 169.76861421 -53.67787725 150.52795428 -60.9375 131.26171875 C-61.19057356 130.59014048 -61.44364712 129.9185622 -61.70438957 129.22663307 C-64.23422985 122.51273025 -66.76273407 115.79832658 -69.28797436 109.08269215 C-70.0079477 107.16876291 -70.72886778 105.25519203 -71.44981384 103.34162903 C-72.37070552 100.89313217 -73.28800262 98.4432799 -74.20143127 95.99198914 C-76.14660109 90.79254386 -78.12240578 85.63154569 -80.34326172 80.54296875 C-85.74144874 68.08469214 -85.74144874 68.08469214 -84.29296875 62.8203125 C-83.56422669 61.19709439 -82.79523749 59.59169701 -82 58 C-81.3277755 56.21225978 -80.65683711 54.42392837 -80.00784302 52.62762451 C-78.82156448 49.35945761 -77.56021127 46.12008938 -76.3125 42.875 C-75.79589779 41.52356214 -75.27961945 40.17200042 -74.76367188 38.8203125 C-73.51283904 35.54544107 -72.257653 32.2722593 -71 29 C-70.07727295 29.16008545 -69.1545459 29.3201709 -68.20385742 29.48510742 C-56.34361772 31.39116896 -45.66973422 30.15642292 -35.6875 23.25 C-31.70389332 20.029039 -28.92319075 16.16675809 -26 12 C-19.13958052 2.40334384 -11.55352699 -0.41825908 0 0 Z " fill="#666" transform="translate(347,316)"/>
<path d="M0 0 C4.12935969 3.31838324 6.80711255 7.49139476 9.80859375 11.80859375 C15.42929855 19.12932268 22.6426977 23.36524226 31.62109375 25 C42.69365876 26.38227079 51.40271131 23.82762768 60.69921875 17.8671875 C66.02827029 14.51859138 69.76050349 14.2771007 75.875 15.5 C75.18883368 19.55634235 73.97039487 23.21187322 72.53125 27.0625 C72.29100601 27.7082045 72.05076202 28.353909 71.80323792 29.0191803 C70.9976509 31.18090329 70.18642235 33.34046119 69.375 35.5 C68.79070889 37.06298543 68.20664928 38.62605743 67.62280273 40.18920898 C65.71349596 45.29530274 63.79507596 50.39794772 61.875 55.5 C61.3977951 56.76858856 61.3977951 56.76858856 60.91094971 58.06280518 C56.41038261 70.02478613 51.89018533 81.97930199 47.36279297 93.93115234 C45.57934771 98.63935052 43.7973036 103.34807727 42.01611328 108.05712891 C39.75688537 114.02993538 37.49642705 120.0022746 35.23460484 125.97409916 C33.99973442 129.23452326 32.76529969 132.49511052 31.53201294 135.75613403 C30.1506886 139.40839608 28.76685631 143.05970509 27.3828125 146.7109375 C26.97104263 147.80062332 26.55927277 148.89030914 26.13502502 150.01301575 C24.15593506 155.22801603 22.12536621 160.39586276 19.875 165.5 C4.71674235 161.36592973 -8.44103649 136.30660585 -16.125 123.5 C-23.26216023 124.08975176 -30.21906693 125.15427356 -37.25 126.5 C-47.14529864 128.37833729 -56.52905748 129.65788318 -66.625 129.5625 C-67.5428125 129.55798828 -68.460625 129.55347656 -69.40625 129.54882812 C-71.64590771 129.53716324 -73.88540504 129.51989267 -76.125 129.5 C-73.82567882 121.25444895 -70.88546638 113.29005552 -67.84765625 105.29296875 C-67.32281105 103.9036875 -66.79827261 102.51429034 -66.27401733 101.12478638 C-64.87216462 97.41173383 -63.46622675 93.70024094 -62.05945969 89.989048 C-60.59788804 86.13121218 -59.14003039 82.27197356 -57.68188477 78.4128418 C-55.6078909 72.92472963 -53.53270805 67.43706991 -51.45600414 61.94998264 C-48.20241613 53.35304432 -44.95628997 44.75332669 -41.71689796 36.15102959 C-41.00302599 34.2553441 -40.2889821 32.35972347 -39.57487488 30.46412659 C-36.91919978 23.41469946 -36.91919978 23.41469946 -34.26467896 16.36483765 C-33.07201264 13.19726329 -31.87798882 10.03020408 -30.68359375 6.86328125 C-30.33380463 5.93331329 -29.9840155 5.00334534 -29.62362671 4.04519653 C-29.30624542 3.20439545 -28.98886414 2.36359436 -28.66186523 1.49731445 C-28.24988136 0.40384453 -28.24988136 0.40384453 -27.82957458 -0.7117157 C-27.125 -2.5 -27.125 -2.5 -26.125 -4.5 C-17.17243624 -7.13310699 -7.64008177 -5.19345441 0 0 Z " fill="#666" transform="translate(184.125,320.5)"/>
</svg>